<?xml version="1.0" encoding="utf-8"?>
<svg version="1.1" xmlns:xlink="http://www.w3.org/1999/xlink" width="40px" height="50px" xmlns="http://www.w3.org/2000/svg">
  <defs>
    <filter x="427px" y="4353px" width="40px" height="50px" filterUnits="userSpaceOnUse" id="filter35">
      <feOffset dx="1" dy="1" in="SourceAlpha" result="shadowOffsetInner" />
      <feGaussianBlur stdDeviation="2.5" in="shadowOffsetInner" result="shadowGaussian" />
      <feComposite in2="shadowGaussian" operator="atop" in="SourceAlpha" result="shadowComposite" />
      <feColorMatrix type="matrix" values="0 0 0 0 0  0 0 0 0 0  0 0 0 0 0  0 0 0 0.698039215686274 0  " in="shadowComposite" />
    </filter>
    <g id="widget36">
      <path d="M 446 4396.03692846835  C 440.2 4386.40734059591  431.5 4380.62958787244  431.5 4371  C 431.5 4365.98571428571  434.4 4357.5  446 4357.5  C 457.6 4357.5  460.5 4365.98571428571  460.5 4371  C 460.5 4380.62958787244  451.8 4386.40734059591  446 4396.03692846835  Z " fill-rule="nonzero" fill="#009dd9" stroke="none" />
      <path d="M 446 4397  C 440 4387  431 4381  431 4371  C 431 4365.8  434 4357  446 4357  C 458 4357  461 4365.8  461 4371  C 461 4381  452 4387  446 4397  Z M 446 4395.07385693671  C 451.6 4385.81468119182  460 4380.25917574489  460 4371  C 460 4366.17142857143  457.2 4358  446 4358  C 434.8 4358  432 4366.17142857143  432 4371  C 432 4380.25917574489  440.4 4385.81468119182  446 4395.07385693671  Z " fill-rule="nonzero" fill="#ffffff" stroke="none" />
    </g>
  </defs>
  <g transform="matrix(1 0 0 1 -427 -4353 )">
    <use xlink:href="#widget36" filter="url(#filter35)" />
    <use xlink:href="#widget36" />
  </g>
</svg>