<?xml version="1.0" encoding="utf-8"?>
<svg version="1.1" xmlns:xlink="http://www.w3.org/1999/xlink" width="12px" height="12px" viewBox="523 622.5  12 12" xmlns="http://www.w3.org/2000/svg">
  <path d="M 529 622.5  C 532.36 622.5  535 625.14  535 628.5  C 535 631.86  532.36 634.5  529 634.5  C 525.64 634.5  523 631.86  523 628.5  C 523 625.14  525.64 622.5  529 622.5  Z " fill-rule="nonzero" fill="#ffffff" stroke="none" />
  <path d="M 529 623  C 532.08 623  534.5 625.42  534.5 628.5  C 534.5 631.58  532.08 634  529 634  C 525.92 634  523.5 631.58  523.5 628.5  C 523.5 625.42  525.92 623  529 623  Z " stroke-width="1" stroke="#797979" fill="none" />
  <path d="M 529 631.5  C 527.32 631.5  526 630.18  526 628.5  C 526 626.82  527.32 625.5  529 625.5  C 530.68 625.5  532 626.82  532 628.5  C 532 630.18  530.68 631.5  529 631.5  " fill-rule="nonzero" fill="#797979" stroke="none" />
</svg>