<?xml version="1.0" encoding="utf-8"?>
<svg version="1.1" xmlns:xlink="http://www.w3.org/1999/xlink" width="12px" height="12px" viewBox="739 442.5  12 12" xmlns="http://www.w3.org/2000/svg">
  <path d="M 745 442.5  C 748.36 442.5  751 445.14  751 448.5  C 751 451.86  748.36 454.5  745 454.5  C 741.64 454.5  739 451.86  739 448.5  C 739 445.14  741.64 442.5  745 442.5  Z " fill-rule="nonzero" fill="#ffffff" stroke="none" />
  <path d="M 745 443  C 748.08 443  750.5 445.42  750.5 448.5  C 750.5 451.58  748.08 454  745 454  C 741.92 454  739.5 451.58  739.5 448.5  C 739.5 445.42  741.92 443  745 443  Z " stroke-width="1" stroke="#797979" fill="none" />
  <path d="M 745 451.5  C 743.32 451.5  742 450.18  742 448.5  C 742 446.82  743.32 445.5  745 445.5  C 746.68 445.5  748 446.82  748 448.5  C 748 450.18  746.68 451.5  745 451.5  " fill-rule="nonzero" fill="#797979" stroke="none" />
</svg>