<?xml version="1.0" encoding="utf-8"?>
<svg version="1.1" xmlns:xlink="http://www.w3.org/1999/xlink" width="12px" height="12px" viewBox="888 442.5  12 12" xmlns="http://www.w3.org/2000/svg">
  <path d="M 894 442.5  C 897.36 442.5  900 445.14  900 448.5  C 900 451.86  897.36 454.5  894 454.5  C 890.64 454.5  888 451.86  888 448.5  C 888 445.14  890.64 442.5  894 442.5  Z " fill-rule="nonzero" fill="#ffffff" stroke="none" />
  <path d="M 894 443  C 897.08 443  899.5 445.42  899.5 448.5  C 899.5 451.58  897.08 454  894 454  C 890.92 454  888.5 451.58  888.5 448.5  C 888.5 445.42  890.92 443  894 443  Z " stroke-width="1" stroke="#797979" fill="none" />
  <path d="M 894 451.5  C 892.32 451.5  891 450.18  891 448.5  C 891 446.82  892.32 445.5  894 445.5  C 895.68 445.5  897 446.82  897 448.5  C 897 450.18  895.68 451.5  894 451.5  " fill-rule="nonzero" fill="#797979" stroke="none" />
</svg>