<?xml version="1.0" encoding="utf-8"?>
<svg version="1.1" xmlns:xlink="http://www.w3.org/1999/xlink" width="95px" height="37px" xmlns="http://www.w3.org/2000/svg">
  <defs>
    <filter x="1108px" y="50px" width="95px" height="37px" filterUnits="userSpaceOnUse" id="filter15">
      <feOffset dx="5" dy="5" in="SourceAlpha" result="shadowOffsetInner" />
      <feGaussianBlur stdDeviation="2.5" in="shadowOffsetInner" result="shadowGaussian" />
      <feComposite in2="shadowGaussian" operator="atop" in="SourceAlpha" result="shadowComposite" />
      <feColorMatrix type="matrix" values="0 0 0 0 0.992156862745098  0 0 0 0 0.992156862745098  0 0 0 0 0.992156862745098  0 0 0 0.349019607843137 0  " in="shadowComposite" />
    </filter>
    <g id="widget16">
      <path d="M 1108.5 60  A 9.5 9.5 0 0 1 1118 50.5 L 1183 50.5  A 9.5 9.5 0 0 1 1192.5 60 L 1192.5 67  A 9.5 9.5 0 0 1 1183 76.5 L 1118 76.5  A 9.5 9.5 0 0 1 1108.5 67 L 1108.5 60  Z " fill-rule="nonzero" fill="#ffffff" stroke="none" fill-opacity="0" />
      <path d="M 1108.5 60  A 9.5 9.5 0 0 1 1118 50.5 L 1183 50.5  A 9.5 9.5 0 0 1 1192.5 60 L 1192.5 67  A 9.5 9.5 0 0 1 1183 76.5 L 1118 76.5  A 9.5 9.5 0 0 1 1108.5 67 L 1108.5 60  Z " stroke-width="1" stroke="#ffffff" fill="none" />
    </g>
  </defs>
  <g transform="matrix(1 0 0 1 -1108 -50 )">
    <use xlink:href="#widget16" filter="url(#filter15)" />
    <use xlink:href="#widget16" />
  </g>
</svg>