<?xml version="1.0" encoding="utf-8"?>
<svg version="1.1" xmlns:xlink="http://www.w3.org/1999/xlink" width="142px" height="24px" xmlns="http://www.w3.org/2000/svg">
  <defs>
    <mask fill="white" id="clip33">
      <path d="M 0 24  L 0 0  L 59.3978494623656 0  L 142 0  L 142 24  L 101.333333333333 24  L 0 24  Z " fill-rule="evenodd" />
    </mask>
  </defs>
  <g transform="matrix(1 0 0 1 -832 -1718 )">
    <path d="M 0 24  L 0 0  L 59.3978494623656 0  L 142 0  L 142 24  L 101.333333333333 24  L 0 24  Z " fill-rule="nonzero" fill="#ffffff" stroke="none" fill-opacity="0" transform="matrix(1 0 0 1 832 1718 )" />
    <path d="M 0 24  L 0 0  L 59.3978494623656 0  L 142 0  L 142 24  L 101.333333333333 24  L 0 24  Z " stroke-width="2" stroke="#bc09cc" fill="none" transform="matrix(1 0 0 1 832 1718 )" mask="url(#clip33)" />
  </g>
</svg>