<?xml version="1.0" encoding="utf-8"?>
<svg version="1.1" xmlns:xlink="http://www.w3.org/1999/xlink" width="529px" height="310px" xmlns="http://www.w3.org/2000/svg">
  <g transform="matrix(1 0 0 1 -462 -3633 )">
    <path d="M 462 3633  L 991 3633  L 991 3943  L 462 3943  L 462 3633  " fill-rule="nonzero" fill="#cccccc" stroke="none" />
    <path d="M 484 3655  L 969 3655  L 969 3921  L 484 3921  L 484 3655  " fill-rule="nonzero" fill="#ffffff" stroke="none" />
    <path d="M 760.33 3726  C 747.31 3726  737.08 3715.77  737.08 3702.75  C 737.08 3689.73  747.31 3679.5  760.33 3679.5  C 773.35 3679.5  783.58 3689.73  783.58 3702.75  C 783.58 3715.77  773.35 3726  760.33 3726  " fill-rule="nonzero" fill="#cccccc" stroke="none" />
    <path d="M 492 3913  L 492 3775.5  L 609.25 3713  L 773.4 3825.09829867675  L 867.2 3750.5  L 961 3825.09829867675  L 961 3913  L 492 3913  " fill-rule="nonzero" fill="#169bd5" stroke="none" />
  </g>
</svg>