<?xml version="1.0" encoding="utf-8"?>
<svg version="1.1" xmlns:xlink="http://www.w3.org/1999/xlink" width="223px" height="131px" xmlns="http://www.w3.org/2000/svg">
  <g transform="matrix(1 0 0 1 -1157 -3575 )">
    <path d="M 1157 3575  L 1380 3575  L 1380 3706  L 1157 3706  L 1157 3575  " fill-rule="nonzero" fill="#cccccc" stroke="none" />
    <path d="M 1166 3584  L 1371 3584  L 1371 3697  L 1166 3697  L 1166 3584  " fill-rule="nonzero" fill="#ffffff" stroke="none" />
    <path d="M 1282.785 3614.3  C 1277.283 3614.3  1272.96 3609.977  1272.96 3604.475  C 1272.96 3598.973  1277.283 3594.65  1282.785 3594.65  C 1288.287 3594.65  1292.61 3598.973  1292.61 3604.475  C 1292.61 3609.977  1288.287 3614.3  1282.785 3614.3  " fill-rule="nonzero" fill="#cccccc" stroke="none" />
    <path d="M 1170 3694  L 1170 3635.7  L 1219.5 3609.2  L 1288.8 3656.63856502242  L 1328.4 3625.1  L 1368 3656.63856502242  L 1368 3694  L 1170 3694  " fill-rule="nonzero" fill="#169bd5" stroke="none" />
  </g>
</svg>