<?xml version="1.0" encoding="utf-8"?>
<svg version="1.1" xmlns:xlink="http://www.w3.org/1999/xlink" width="223px" height="131px" xmlns="http://www.w3.org/2000/svg">
  <g transform="matrix(1 0 0 1 -1157 -3624 )">
    <path d="M 1157 3624  L 1380 3624  L 1380 3755  L 1157 3755  L 1157 3624  " fill-rule="nonzero" fill="#cccccc" stroke="none" />
    <path d="M 1166 3633  L 1371 3633  L 1371 3746  L 1166 3746  L 1166 3633  " fill-rule="nonzero" fill="#ffffff" stroke="none" />
    <path d="M 1282.785 3663.3  C 1277.283 3663.3  1272.96 3658.977  1272.96 3653.475  C 1272.96 3647.973  1277.283 3643.65  1282.785 3643.65  C 1288.287 3643.65  1292.61 3647.973  1292.61 3653.475  C 1292.61 3658.977  1288.287 3663.3  1282.785 3663.3  " fill-rule="nonzero" fill="#cccccc" stroke="none" />
    <path d="M 1170 3743  L 1170 3684.7  L 1219.5 3658.2  L 1288.8 3705.63856502242  L 1328.4 3674.1  L 1368 3705.63856502242  L 1368 3743  L 1170 3743  " fill-rule="nonzero" fill="#169bd5" stroke="none" />
  </g>
</svg>