<?xml version="1.0" encoding="utf-8"?>
<svg version="1.1" xmlns:xlink="http://www.w3.org/1999/xlink" width="12px" height="12px" viewBox="785 630.5  12 12" xmlns="http://www.w3.org/2000/svg">
  <path d="M 791 630.5  C 794.36 630.5  797 633.14  797 636.5  C 797 639.86  794.36 642.5  791 642.5  C 787.64 642.5  785 639.86  785 636.5  C 785 633.14  787.64 630.5  791 630.5  Z " fill-rule="nonzero" fill="#f0f0f0" stroke="none" />
  <path d="M 791 631  C 794.08 631  796.5 633.42  796.5 636.5  C 796.5 639.58  794.08 642  791 642  C 787.92 642  785.5 639.58  785.5 636.5  C 785.5 633.42  787.92 631  791 631  Z " stroke-width="1" stroke="#797979" fill="none" />
  <path d="M 791 639.5  C 789.32 639.5  788 638.18  788 636.5  C 788 634.82  789.32 633.5  791 633.5  C 792.68 633.5  794 634.82  794 636.5  C 794 638.18  792.68 639.5  791 639.5  " fill-rule="nonzero" fill="#797979" stroke="none" />
</svg>